<mxfile host="app.diagrams.net" agent="Mozilla/5.0 (Windows NT 10.0; Win64; x64) AppleWebKit/537.36 (KHTML, like Gecko) Chrome/134.0.0.0 Safari/537.36 OPR/119.0.0.0" version="27.2.0">
  <diagram name="Página-1" id="h09DhMrksoLjND4vKkso">
    <mxGraphModel grid="1" page="1" gridSize="10" guides="1" tooltips="1" connect="1" arrows="1" fold="1" pageScale="1" pageWidth="827" pageHeight="1169" math="0" shadow="0">
      <root>
        <mxCell id="0" />
        <mxCell id="1" parent="0" />
        <mxCell id="uHjK8QpXHQpsVASaSQrN-2" value="&lt;p style=&quot;margin:0px;margin-top:4px;text-align:center;&quot;&gt;&lt;i&gt;&amp;lt;&amp;lt;Abstract&amp;gt;&amp;gt;&lt;/i&gt;&lt;br&gt;&lt;b&gt;Combatente&lt;/b&gt;&lt;/p&gt;&lt;hr size=&quot;1&quot; style=&quot;border-style:solid;&quot;&gt;&lt;p style=&quot;margin:0px;margin-left:4px;&quot;&gt;+ idCombatente: int&lt;/p&gt;&lt;p style=&quot;margin:0px;margin-left:4px;&quot;&gt;+ nome: String&lt;/p&gt;&lt;p style=&quot;margin:0px;margin-left:4px;&quot;&gt;+ classeArmadura: int&lt;/p&gt;&lt;p style=&quot;margin:0px;margin-left:4px;&quot;&gt;+ vidaMax: int&lt;/p&gt;&lt;p style=&quot;margin:0px;margin-left:4px;&quot;&gt;+ nível: int&lt;br&gt;+ habilidadesPreparadas: List&amp;lt;Habilidade&amp;gt;&lt;/p&gt;&lt;p style=&quot;margin:0px;margin-left:4px;&quot;&gt;&lt;br&gt;&lt;/p&gt;&lt;p style=&quot;margin: 0px 0px 0px 4px;&quot;&gt;&lt;span style=&quot;background-color: transparent; color: light-dark(rgb(0, 0, 0), rgb(255, 255, 255));&quot;&gt;+ receberDano(int quantidade): void&lt;/span&gt;&lt;/p&gt;&lt;p style=&quot;margin: 0px 0px 0px 4px;&quot;&gt;+ receberCura(int quantidade): Type&lt;/p&gt;" style="verticalAlign=top;align=left;overflow=fill;html=1;whiteSpace=wrap;" vertex="1" parent="1">
          <mxGeometry x="1555" y="2840" width="190" height="220" as="geometry" />
        </mxCell>
        <mxCell id="uHjK8QpXHQpsVASaSQrN-3" value="&lt;p style=&quot;margin:0px;margin-top:4px;text-align:center;&quot;&gt;&lt;b&gt;Inimigo&lt;/b&gt;&lt;/p&gt;&lt;hr size=&quot;1&quot; style=&quot;border-style:solid;&quot;&gt;&lt;p style=&quot;margin:0px;margin-left:4px;&quot;&gt;idInimigo: int&lt;/p&gt;&lt;p style=&quot;margin:0px;margin-left:4px;&quot;&gt;tipo: String&lt;/p&gt;&lt;p style=&quot;margin:0px;margin-left:4px;&quot;&gt;&lt;/p&gt;&lt;p style=&quot;margin: 0px 0px 0px 4px;&quot;&gt;&lt;br&gt;&lt;/p&gt;" style="verticalAlign=top;align=left;overflow=fill;html=1;whiteSpace=wrap;" vertex="1" parent="1">
          <mxGeometry x="930.5" y="2660" width="185" height="65" as="geometry" />
        </mxCell>
        <mxCell id="uHjK8QpXHQpsVASaSQrN-5" value="&lt;p style=&quot;margin:0px;margin-top:4px;text-align:center;&quot;&gt;&lt;b&gt;Personagem&lt;/b&gt;&lt;/p&gt;&lt;hr size=&quot;1&quot; style=&quot;border-style:solid;&quot;&gt;&lt;p style=&quot;margin:0px;margin-left:4px;&quot;&gt;+ idPersonagem: int&lt;/p&gt;&lt;p style=&quot;margin:0px;margin-left:4px;&quot;&gt;+ raça: Raça&lt;/p&gt;&lt;p style=&quot;margin:0px;margin-left:4px;&quot;&gt;+ classe: Classe&lt;/p&gt;&lt;p style=&quot;margin:0px;margin-left:4px;&quot;&gt;+ armadura: String&lt;/p&gt;&lt;p style=&quot;margin:0px;margin-left:4px;&quot;&gt;+ equipamentos: Map&amp;lt;String, Equipamento&amp;gt;&lt;br&gt;&lt;/p&gt;&lt;p style=&quot;margin:0px;margin-left:4px;&quot;&gt;+&amp;nbsp;habilidadesConhecidas: List&amp;lt;Habilidade&amp;gt;&lt;/p&gt;" style="verticalAlign=top;align=left;overflow=fill;html=1;whiteSpace=wrap;" vertex="1" parent="1">
          <mxGeometry x="1563.75" y="2540" width="176.25" height="170" as="geometry" />
        </mxCell>
        <mxCell id="uHjK8QpXHQpsVASaSQrN-7" value="&lt;p style=&quot;margin:0px;margin-top:4px;text-align:center;&quot;&gt;&lt;b&gt;ClassePersonagem&lt;/b&gt;&lt;/p&gt;&lt;hr size=&quot;1&quot; style=&quot;border-style:solid;&quot;&gt;&lt;p style=&quot;margin:0px;margin-left:4px;&quot;&gt;+ idClasse: int&lt;/p&gt;&lt;p style=&quot;margin:0px;margin-left:4px;&quot;&gt;+ nome: String&lt;/p&gt;&lt;p style=&quot;margin:0px;margin-left:4px;&quot;&gt;+ proficienciaArmadura: ProficienciaArmadura&lt;br&gt;+ proficiênciaArma:&amp;nbsp;&lt;span style=&quot;background-color: transparent; color: light-dark(rgb(0, 0, 0), rgb(255, 255, 255));&quot;&gt;ProficienciaArma&lt;/span&gt;&lt;/p&gt;&lt;p style=&quot;margin:0px;margin-left:4px;&quot;&gt;+ habilidadesDisponiveis: List&amp;lt;Habilidade&amp;gt;&lt;/p&gt;&lt;p style=&quot;margin:0px;margin-left:4px;&quot;&gt;&lt;br&gt;&lt;/p&gt;" style="verticalAlign=top;align=left;overflow=fill;html=1;whiteSpace=wrap;" vertex="1" parent="1">
          <mxGeometry x="1960" y="2730" width="190" height="157.5" as="geometry" />
        </mxCell>
        <mxCell id="uHjK8QpXHQpsVASaSQrN-8" value="&lt;p style=&quot;margin:0px;margin-top:4px;text-align:center;&quot;&gt;&lt;b&gt;Raca&lt;/b&gt;&lt;/p&gt;&lt;hr size=&quot;1&quot; style=&quot;border-style:solid;&quot;&gt;&lt;p style=&quot;margin:0px;margin-left:4px;&quot;&gt;+ idRaca: int&lt;/p&gt;&lt;p style=&quot;margin:0px;margin-left:4px;&quot;&gt;+ nome: String&lt;/p&gt;&lt;p style=&quot;margin:0px;margin-left:4px;&quot;&gt;+ modificadoresDeAtributo: Map&amp;lt;String, int&amp;gt;&lt;/p&gt;&lt;p style=&quot;margin:0px;margin-left:4px;&quot;&gt;&lt;br&gt;&lt;/p&gt;" style="verticalAlign=top;align=left;overflow=fill;html=1;whiteSpace=wrap;" vertex="1" parent="1">
          <mxGeometry x="1875" y="2550" width="160" height="90" as="geometry" />
        </mxCell>
        <mxCell id="uHjK8QpXHQpsVASaSQrN-17" value="" style="endArrow=diamondThin;endFill=1;endSize=24;html=1;rounded=0;entryX=1;entryY=0.5;entryDx=0;entryDy=0;exitX=0;exitY=0.5;exitDx=0;exitDy=0;edgeStyle=orthogonalEdgeStyle;" edge="1" parent="1" source="uHjK8QpXHQpsVASaSQrN-8" target="uHjK8QpXHQpsVASaSQrN-5">
          <mxGeometry width="160" relative="1" as="geometry">
            <mxPoint x="1815" y="2730" as="sourcePoint" />
            <mxPoint x="1975" y="2730" as="targetPoint" />
          </mxGeometry>
        </mxCell>
        <mxCell id="uHjK8QpXHQpsVASaSQrN-18" value="" style="endArrow=diamondThin;endFill=1;endSize=24;html=1;rounded=0;edgeStyle=orthogonalEdgeStyle;exitX=-0.01;exitY=0.447;exitDx=0;exitDy=0;exitPerimeter=0;" edge="1" parent="1" source="uHjK8QpXHQpsVASaSQrN-7">
          <mxGeometry width="160" relative="1" as="geometry">
            <mxPoint x="1950" y="2800" as="sourcePoint" />
            <mxPoint x="1740.0000000000002" y="2685" as="targetPoint" />
            <Array as="points">
              <mxPoint x="1950" y="2800" />
              <mxPoint x="1890" y="2800" />
              <mxPoint x="1890" y="2685" />
            </Array>
          </mxGeometry>
        </mxCell>
        <mxCell id="uHjK8QpXHQpsVASaSQrN-44" value="Extends" style="endArrow=block;endSize=16;endFill=0;html=1;rounded=0;exitX=0.5;exitY=1;exitDx=0;exitDy=0;entryX=0.5;entryY=0;entryDx=0;entryDy=0;" edge="1" parent="1" source="uHjK8QpXHQpsVASaSQrN-5" target="uHjK8QpXHQpsVASaSQrN-2">
          <mxGeometry width="160" relative="1" as="geometry">
            <mxPoint x="595" y="2954.29" as="sourcePoint" />
            <mxPoint x="755" y="2954.29" as="targetPoint" />
          </mxGeometry>
        </mxCell>
        <mxCell id="uHjK8QpXHQpsVASaSQrN-45" value="Extends" style="endArrow=block;endSize=16;endFill=0;html=1;rounded=0;exitX=0.982;exitY=0.539;exitDx=0;exitDy=0;exitPerimeter=0;edgeStyle=orthogonalEdgeStyle;entryX=-0.005;entryY=0.046;entryDx=0;entryDy=0;entryPerimeter=0;" edge="1" parent="1" source="uHjK8QpXHQpsVASaSQrN-3" target="uHjK8QpXHQpsVASaSQrN-2">
          <mxGeometry width="160" relative="1" as="geometry">
            <mxPoint x="1375" y="2920" as="sourcePoint" />
            <mxPoint x="1570" y="2820" as="targetPoint" />
            <Array as="points">
              <mxPoint x="1310" y="2697" />
              <mxPoint x="1310" y="2750" />
              <mxPoint x="1440" y="2750" />
              <mxPoint x="1440" y="2850" />
              <mxPoint x="1520" y="2850" />
            </Array>
          </mxGeometry>
        </mxCell>
        <mxCell id="uHjK8QpXHQpsVASaSQrN-61" value="&lt;p style=&quot;margin:0px;margin-top:4px;text-align:center;&quot;&gt;&lt;b&gt;AtributosBase&lt;/b&gt;&lt;/p&gt;&lt;hr size=&quot;1&quot; style=&quot;border-style:solid;&quot;&gt;&lt;p style=&quot;margin: 0px 0px 0px 4px;&quot;&gt;+ força: int&lt;/p&gt;&lt;p style=&quot;margin: 0px 0px 0px 4px;&quot;&gt;+ destreza: int&lt;/p&gt;&lt;p style=&quot;margin: 0px 0px 0px 4px;&quot;&gt;+ constituição: int&lt;/p&gt;&lt;p style=&quot;margin: 0px 0px 0px 4px;&quot;&gt;+ inteligência: int&lt;/p&gt;&lt;p style=&quot;margin: 0px 0px 0px 4px;&quot;&gt;+ sabedoria: int&lt;/p&gt;&lt;p style=&quot;margin: 0px 0px 0px 4px;&quot;&gt;+ carisma: int&lt;/p&gt;&lt;p style=&quot;margin: 0px 0px 0px 4px;&quot;&gt;&lt;br&gt;&lt;/p&gt;&lt;p style=&quot;margin: 0px 0px 0px 4px;&quot;&gt;+ getModificador(String atributo): int&lt;/p&gt;" style="verticalAlign=top;align=left;overflow=fill;html=1;whiteSpace=wrap;" vertex="1" parent="1">
          <mxGeometry x="1012.5" y="2985" width="160" height="165" as="geometry" />
        </mxCell>
        <mxCell id="uHjK8QpXHQpsVASaSQrN-62" value="" style="endArrow=diamondThin;endFill=1;endSize=24;html=1;rounded=0;exitX=1;exitY=0.651;exitDx=0;exitDy=0;edgeStyle=orthogonalEdgeStyle;exitPerimeter=0;entryX=0.607;entryY=1.001;entryDx=0;entryDy=0;entryPerimeter=0;" edge="1" parent="1" source="uHjK8QpXHQpsVASaSQrN-61" target="uHjK8QpXHQpsVASaSQrN-2">
          <mxGeometry width="160" relative="1" as="geometry">
            <mxPoint x="1875" y="3168" as="sourcePoint" />
            <mxPoint x="1830" y="3040" as="targetPoint" />
            <Array as="points">
              <mxPoint x="1470" y="3085" />
              <mxPoint x="1470" y="3105" />
              <mxPoint x="1670" y="3105" />
            </Array>
          </mxGeometry>
        </mxCell>
        <mxCell id="uHjK8QpXHQpsVASaSQrN-64" value="1" style="text;html=1;align=center;verticalAlign=middle;resizable=0;points=[];autosize=1;strokeColor=none;fillColor=none;" vertex="1" parent="1">
          <mxGeometry x="1187.5" y="3050" width="30" height="30" as="geometry" />
        </mxCell>
        <mxCell id="uHjK8QpXHQpsVASaSQrN-65" value="&lt;p style=&quot;margin:0px;margin-top:4px;text-align:center;&quot;&gt;&lt;b&gt;Arma&lt;/b&gt;&lt;/p&gt;&lt;hr size=&quot;1&quot; style=&quot;border-style:solid;&quot;&gt;&lt;p style=&quot;margin: 0px 0px 0px 4px;&quot;&gt;+ danoBase: int&lt;br&gt;+ nome: String&lt;br&gt;&lt;/p&gt;&lt;p style=&quot;margin: 0px 0px 0px 4px;&quot;&gt;&lt;br&gt;&lt;/p&gt;&lt;p style=&quot;margin: 0px 0px 0px 4px;&quot;&gt;+ atacar(Combatente autor, AlvoDeAcao alvo): void&lt;/p&gt;" style="verticalAlign=top;align=left;overflow=fill;html=1;whiteSpace=wrap;" vertex="1" parent="1">
          <mxGeometry x="1002.5" y="2740" width="160" height="110" as="geometry" />
        </mxCell>
        <mxCell id="uHjK8QpXHQpsVASaSQrN-66" value="" style="endArrow=none;html=1;endSize=12;startArrow=diamondThin;startSize=23;startFill=1;edgeStyle=orthogonalEdgeStyle;align=left;verticalAlign=bottom;rounded=0;exitX=-0.011;exitY=0.194;exitDx=0;exitDy=0;entryX=1;entryY=0.684;entryDx=0;entryDy=0;entryPerimeter=0;endFill=0;exitPerimeter=0;" edge="1" parent="1" source="uHjK8QpXHQpsVASaSQrN-2" target="uHjK8QpXHQpsVASaSQrN-65">
          <mxGeometry x="-1" y="3" relative="1" as="geometry">
            <mxPoint x="1513.57375" y="2878.42" as="sourcePoint" />
            <mxPoint x="1360" y="2849.9999999999995" as="targetPoint" />
          </mxGeometry>
        </mxCell>
        <mxCell id="uHjK8QpXHQpsVASaSQrN-67" value="1" style="text;html=1;align=center;verticalAlign=middle;resizable=0;points=[];autosize=1;strokeColor=none;fillColor=none;" vertex="1" parent="1">
          <mxGeometry x="1250" y="2818" width="30" height="30" as="geometry" />
        </mxCell>
        <mxCell id="uHjK8QpXHQpsVASaSQrN-79" value="&lt;i style=&quot;font-weight: 400;&quot;&gt;&amp;lt;&amp;lt;Abstract&amp;gt;&amp;gt;&lt;/i&gt;&lt;br&gt;Habilidade" style="swimlane;fontStyle=1;align=center;verticalAlign=top;childLayout=stackLayout;horizontal=1;startSize=40;horizontalStack=0;resizeParent=1;resizeParentMax=0;resizeLast=0;collapsible=1;marginBottom=0;whiteSpace=wrap;html=1;" vertex="1" parent="1">
          <mxGeometry x="1908" y="2960" width="160" height="150" as="geometry" />
        </mxCell>
        <mxCell id="uHjK8QpXHQpsVASaSQrN-80" value="&lt;div&gt;&lt;span style=&quot;background-color: transparent; color: light-dark(rgb(0, 0, 0), rgb(255, 255, 255));&quot;&gt;+ id: String&lt;/span&gt;&lt;/div&gt;&lt;div&gt;&lt;span style=&quot;background-color: transparent; color: light-dark(rgb(0, 0, 0), rgb(255, 255, 255));&quot;&gt;+ nome: String&lt;/span&gt;&lt;/div&gt;&lt;div&gt;&lt;span style=&quot;background-color: transparent; color: light-dark(rgb(0, 0, 0), rgb(255, 255, 255));&quot;&gt;+ descricao: String&lt;/span&gt;&lt;/div&gt;&lt;div&gt;+ nivelExigido: int&lt;/div&gt;&lt;div&gt;+ custo: int&lt;/div&gt;&lt;div&gt;&lt;i&gt;+ execute(Combatente usuario, Combatente alvo)&lt;/i&gt;&lt;/div&gt;" style="text;strokeColor=none;fillColor=none;align=left;verticalAlign=top;spacingLeft=4;spacingRight=4;overflow=hidden;rotatable=0;points=[[0,0.5],[1,0.5]];portConstraint=eastwest;whiteSpace=wrap;html=1;" vertex="1" parent="uHjK8QpXHQpsVASaSQrN-79">
          <mxGeometry y="40" width="160" height="110" as="geometry" />
        </mxCell>
        <mxCell id="uHjK8QpXHQpsVASaSQrN-83" value="HabilidadeDeCura" style="swimlane;fontStyle=1;align=center;verticalAlign=top;childLayout=stackLayout;horizontal=1;startSize=30;horizontalStack=0;resizeParent=1;resizeParentMax=0;resizeLast=0;collapsible=1;marginBottom=0;whiteSpace=wrap;html=1;" vertex="1" parent="1">
          <mxGeometry x="1840" y="3220" width="160" height="110" as="geometry" />
        </mxCell>
        <mxCell id="uHjK8QpXHQpsVASaSQrN-86" value="&lt;div&gt;+ curaBase: int&lt;/div&gt;&lt;div&gt;&lt;br&gt;&lt;/div&gt;+ execute(Combatente usuario, AlvoDeAcao&amp;nbsp;alvo): void" style="text;strokeColor=none;fillColor=none;align=left;verticalAlign=top;spacingLeft=4;spacingRight=4;overflow=hidden;rotatable=0;points=[[0,0.5],[1,0.5]];portConstraint=eastwest;whiteSpace=wrap;html=1;" vertex="1" parent="uHjK8QpXHQpsVASaSQrN-83">
          <mxGeometry y="30" width="160" height="80" as="geometry" />
        </mxCell>
        <mxCell id="uHjK8QpXHQpsVASaSQrN-87" value="HabilidadeDeDano" style="swimlane;fontStyle=1;align=center;verticalAlign=top;childLayout=stackLayout;horizontal=1;startSize=30;horizontalStack=0;resizeParent=1;resizeParentMax=0;resizeLast=0;collapsible=1;marginBottom=0;whiteSpace=wrap;html=1;" vertex="1" parent="1">
          <mxGeometry x="2050" y="3220" width="160" height="110" as="geometry" />
        </mxCell>
        <mxCell id="uHjK8QpXHQpsVASaSQrN-90" value="&lt;div&gt;+ danoBase: int&lt;/div&gt;&lt;div&gt;&lt;br&gt;&lt;/div&gt;+ execute(Combatente usuario, AlvoDeAcao&amp;nbsp;alvo): void" style="text;strokeColor=none;fillColor=none;align=left;verticalAlign=top;spacingLeft=4;spacingRight=4;overflow=hidden;rotatable=0;points=[[0,0.5],[1,0.5]];portConstraint=eastwest;whiteSpace=wrap;html=1;" vertex="1" parent="uHjK8QpXHQpsVASaSQrN-87">
          <mxGeometry y="30" width="160" height="80" as="geometry" />
        </mxCell>
        <mxCell id="uHjK8QpXHQpsVASaSQrN-91" value="Extends" style="endArrow=block;endSize=16;endFill=0;html=1;rounded=0;entryX=0.509;entryY=1.013;entryDx=0;entryDy=0;entryPerimeter=0;edgeStyle=orthogonalEdgeStyle;exitX=0.25;exitY=0;exitDx=0;exitDy=0;" edge="1" parent="1" source="uHjK8QpXHQpsVASaSQrN-83">
          <mxGeometry width="160" relative="1" as="geometry">
            <mxPoint x="1880" y="3210" as="sourcePoint" />
            <mxPoint x="1991.44" y="3109.996" as="targetPoint" />
            <Array as="points">
              <mxPoint x="1880" y="3164" />
              <mxPoint x="1991" y="3164" />
            </Array>
          </mxGeometry>
        </mxCell>
        <mxCell id="uHjK8QpXHQpsVASaSQrN-92" value="Extends" style="endArrow=block;endSize=16;endFill=0;html=1;rounded=0;entryX=0.507;entryY=1.013;entryDx=0;entryDy=0;entryPerimeter=0;edgeStyle=orthogonalEdgeStyle;exitX=0.559;exitY=0.005;exitDx=0;exitDy=0;exitPerimeter=0;" edge="1" parent="1" source="uHjK8QpXHQpsVASaSQrN-87">
          <mxGeometry width="160" relative="1" as="geometry">
            <mxPoint x="2140" y="3210" as="sourcePoint" />
            <mxPoint x="1991.12" y="3109.996" as="targetPoint" />
            <Array as="points">
              <mxPoint x="2139" y="3164" />
              <mxPoint x="1991" y="3164" />
            </Array>
          </mxGeometry>
        </mxCell>
        <mxCell id="uHjK8QpXHQpsVASaSQrN-94" style="edgeStyle=orthogonalEdgeStyle;rounded=0;orthogonalLoop=1;jettySize=auto;html=1;exitX=0.75;exitY=1;exitDx=0;exitDy=0;entryX=0.13;entryY=0.001;entryDx=0;entryDy=0;entryPerimeter=0;endArrow=none;endFill=0;" edge="1" parent="1" source="uHjK8QpXHQpsVASaSQrN-5" target="uHjK8QpXHQpsVASaSQrN-79">
          <mxGeometry relative="1" as="geometry">
            <Array as="points">
              <mxPoint x="1696" y="2800" />
              <mxPoint x="1820" y="2800" />
              <mxPoint x="1820" y="2940" />
              <mxPoint x="1929" y="2940" />
            </Array>
          </mxGeometry>
        </mxCell>
        <mxCell id="uHjK8QpXHQpsVASaSQrN-98" value="1" style="endArrow=none;html=1;endSize=12;startArrow=diamondThin;startSize=14;startFill=0;edgeStyle=orthogonalEdgeStyle;align=left;verticalAlign=bottom;rounded=0;endFill=0;entryX=0.53;entryY=0.009;entryDx=0;entryDy=0;entryPerimeter=0;exitX=-0.006;exitY=0.815;exitDx=0;exitDy=0;exitPerimeter=0;" edge="1" parent="1" source="uHjK8QpXHQpsVASaSQrN-7" target="uHjK8QpXHQpsVASaSQrN-79">
          <mxGeometry x="-0.6518" y="13" relative="1" as="geometry">
            <mxPoint x="1890" y="2830" as="sourcePoint" />
            <mxPoint x="2031" y="2938" as="targetPoint" />
            <Array as="points">
              <mxPoint x="1950" y="2858" />
              <mxPoint x="1910" y="2858" />
              <mxPoint x="1850" y="2858" />
              <mxPoint x="1850" y="2910" />
              <mxPoint x="1920" y="2910" />
              <mxPoint x="1920" y="2930" />
              <mxPoint x="2015" y="2930" />
              <mxPoint x="2015" y="2961" />
            </Array>
            <mxPoint as="offset" />
          </mxGeometry>
        </mxCell>
        <mxCell id="t8x82ju6y59PIg8sHKQx-1" value="&lt;p style=&quot;margin:0px;margin-top:4px;text-align:center;&quot;&gt;&lt;b&gt;Armadura&lt;/b&gt;&lt;/p&gt;&lt;hr size=&quot;1&quot; style=&quot;border-style:solid;&quot;&gt;&lt;p style=&quot;margin: 0px 0px 0px 4px;&quot;&gt;+ danoReduzido: int&lt;br&gt;+ nome: String&lt;br&gt;&lt;/p&gt;&lt;p style=&quot;margin: 0px 0px 0px 4px;&quot;&gt;+proficienciaRequerida: ProficienciaArmadura&lt;/p&gt;" style="verticalAlign=top;align=left;overflow=fill;html=1;whiteSpace=wrap;" vertex="1" parent="1">
          <mxGeometry x="987.5" y="2868" width="185" height="87" as="geometry" />
        </mxCell>
        <mxCell id="t8x82ju6y59PIg8sHKQx-4" value="" style="endArrow=diamondThin;endFill=1;endSize=24;html=1;rounded=0;exitX=0;exitY=0.25;exitDx=0;exitDy=0;edgeStyle=orthogonalEdgeStyle;entryX=1.003;entryY=0.631;entryDx=0;entryDy=0;entryPerimeter=0;" edge="1" parent="1" source="uHjK8QpXHQpsVASaSQrN-79" target="uHjK8QpXHQpsVASaSQrN-2">
          <mxGeometry width="160" relative="1" as="geometry">
            <mxPoint x="1895" y="3060" as="sourcePoint" />
            <mxPoint x="1750" y="2960" as="targetPoint" />
          </mxGeometry>
        </mxCell>
        <mxCell id="t8x82ju6y59PIg8sHKQx-5" value="" style="endArrow=diamondThin;endFill=1;endSize=24;html=1;rounded=0;exitX=1;exitY=0.5;exitDx=0;exitDy=0;edgeStyle=orthogonalEdgeStyle;entryX=0.003;entryY=0.552;entryDx=0;entryDy=0;entryPerimeter=0;" edge="1" parent="1" source="t8x82ju6y59PIg8sHKQx-1" target="uHjK8QpXHQpsVASaSQrN-2">
          <mxGeometry width="160" relative="1" as="geometry">
            <mxPoint x="1662" y="3173" as="sourcePoint" />
            <mxPoint x="1500" y="3150" as="targetPoint" />
          </mxGeometry>
        </mxCell>
        <mxCell id="t8x82ju6y59PIg8sHKQx-7" value="&lt;p style=&quot;margin:0px;margin-top:4px;text-align:center;&quot;&gt;&lt;i&gt;&amp;lt;&amp;lt;Interface&amp;gt;&amp;gt;&lt;/i&gt;&lt;br&gt;&lt;b&gt;AlvoDeAcao&lt;/b&gt;&lt;/p&gt;&lt;hr size=&quot;1&quot; style=&quot;border-style:solid;&quot;&gt;&lt;p style=&quot;margin:0px;margin-left:4px;&quot;&gt;&lt;span style=&quot;background-color: transparent; color: light-dark(rgb(0, 0, 0), rgb(255, 255, 255));&quot;&gt;+ receberDano(int quantidade): void&lt;/span&gt;&lt;/p&gt;&lt;p style=&quot;margin:0px;margin-left:4px;&quot;&gt;+ receberCura(int quantidade): Type&lt;/p&gt;" style="verticalAlign=top;align=left;overflow=fill;html=1;whiteSpace=wrap;" vertex="1" parent="1">
          <mxGeometry x="878.5" y="2520" width="190" height="120" as="geometry" />
        </mxCell>
        <mxCell id="t8x82ju6y59PIg8sHKQx-14" value="" style="endArrow=block;dashed=1;endFill=0;endSize=12;html=1;rounded=0;entryX=0;entryY=0;entryDx=0;entryDy=0;edgeStyle=orthogonalEdgeStyle;exitX=-0.001;exitY=0.059;exitDx=0;exitDy=0;exitPerimeter=0;" edge="1" parent="1" source="t8x82ju6y59PIg8sHKQx-17" target="t8x82ju6y59PIg8sHKQx-7">
          <mxGeometry width="160" relative="1" as="geometry">
            <mxPoint x="1260.2399999999998" y="2441.1040000000003" as="sourcePoint" />
            <mxPoint x="1383" y="2580" as="targetPoint" />
          </mxGeometry>
        </mxCell>
        <mxCell id="t8x82ju6y59PIg8sHKQx-15" value="" style="endArrow=block;dashed=1;endFill=0;endSize=12;html=1;rounded=0;entryX=1.003;entryY=0.938;entryDx=0;entryDy=0;entryPerimeter=0;exitX=0.112;exitY=-0.017;exitDx=0;exitDy=0;exitPerimeter=0;edgeStyle=orthogonalEdgeStyle;" edge="1" parent="1" source="uHjK8QpXHQpsVASaSQrN-2" target="t8x82ju6y59PIg8sHKQx-7">
          <mxGeometry width="160" relative="1" as="geometry">
            <mxPoint x="1438" y="2490" as="sourcePoint" />
            <mxPoint x="1320" y="2617" as="targetPoint" />
            <Array as="points">
              <mxPoint x="1576" y="2810" />
              <mxPoint x="1490" y="2810" />
              <mxPoint x="1490" y="2730" />
              <mxPoint x="1410" y="2730" />
              <mxPoint x="1410" y="2633" />
            </Array>
          </mxGeometry>
        </mxCell>
        <mxCell id="t8x82ju6y59PIg8sHKQx-17" value="Grupo&amp;lt;T extends Combatente&amp;gt;" style="swimlane;fontStyle=1;align=center;verticalAlign=top;childLayout=stackLayout;horizontal=1;startSize=26;horizontalStack=0;resizeParent=1;resizeParentMax=0;resizeLast=0;collapsible=1;marginBottom=0;whiteSpace=wrap;html=1;" vertex="1" parent="1">
          <mxGeometry x="1347" y="2275" width="230" height="150" as="geometry">
            <mxRectangle x="220" y="60" width="70" height="30" as="alternateBounds" />
          </mxGeometry>
        </mxCell>
        <mxCell id="t8x82ju6y59PIg8sHKQx-18" value="&lt;div&gt;+ idGrupo: String&lt;/div&gt;&lt;div&gt;+ nome: String&lt;/div&gt;+ membros: List&amp;lt;T&amp;gt;" style="text;strokeColor=none;fillColor=none;align=left;verticalAlign=top;spacingLeft=4;spacingRight=4;overflow=hidden;rotatable=0;points=[[0,0.5],[1,0.5]];portConstraint=eastwest;whiteSpace=wrap;html=1;" vertex="1" parent="t8x82ju6y59PIg8sHKQx-17">
          <mxGeometry y="26" width="230" height="64" as="geometry" />
        </mxCell>
        <mxCell id="t8x82ju6y59PIg8sHKQx-19" value="" style="line;strokeWidth=1;fillColor=none;align=left;verticalAlign=middle;spacingTop=-1;spacingLeft=3;spacingRight=3;rotatable=0;labelPosition=right;points=[];portConstraint=eastwest;strokeColor=inherit;" vertex="1" parent="t8x82ju6y59PIg8sHKQx-17">
          <mxGeometry y="90" width="230" height="8" as="geometry" />
        </mxCell>
        <mxCell id="t8x82ju6y59PIg8sHKQx-20" value="&lt;p style=&quot;margin: 0px 0px 0px 4px;&quot;&gt;&lt;span style=&quot;background-color: transparent; color: light-dark(rgb(0, 0, 0), rgb(255, 255, 255));&quot;&gt;+ receberDano(int quantidade): void&lt;/span&gt;&lt;/p&gt;&lt;p style=&quot;margin: 0px 0px 0px 4px;&quot;&gt;+ receberCura(int quantidade): Type&lt;/p&gt;" style="text;strokeColor=none;fillColor=none;align=left;verticalAlign=top;spacingLeft=4;spacingRight=4;overflow=hidden;rotatable=0;points=[[0,0.5],[1,0.5]];portConstraint=eastwest;whiteSpace=wrap;html=1;" vertex="1" parent="t8x82ju6y59PIg8sHKQx-17">
          <mxGeometry y="98" width="230" height="52" as="geometry" />
        </mxCell>
        <mxCell id="t8x82ju6y59PIg8sHKQx-21" value="" style="endArrow=diamondThin;endFill=1;endSize=24;html=1;rounded=0;exitX=0.188;exitY=0.001;exitDx=0;exitDy=0;edgeStyle=orthogonalEdgeStyle;entryX=0.781;entryY=1.011;entryDx=0;entryDy=0;entryPerimeter=0;exitPerimeter=0;" edge="1" parent="1" source="uHjK8QpXHQpsVASaSQrN-2" target="t8x82ju6y59PIg8sHKQx-20">
          <mxGeometry width="160" relative="1" as="geometry">
            <mxPoint x="1630" y="2450" as="sourcePoint" />
            <mxPoint x="1821" y="2484" as="targetPoint" />
            <Array as="points">
              <mxPoint x="1591" y="2740" />
              <mxPoint x="1540" y="2740" />
              <mxPoint x="1540" y="2500" />
              <mxPoint x="1530" y="2500" />
              <mxPoint x="1530" y="2450" />
              <mxPoint x="1527" y="2450" />
            </Array>
          </mxGeometry>
        </mxCell>
        <mxCell id="t8x82ju6y59PIg8sHKQx-22" value="*" style="text;html=1;align=center;verticalAlign=middle;resizable=0;points=[];autosize=1;strokeColor=none;fillColor=none;" vertex="1" parent="1">
          <mxGeometry x="1585" y="2788" width="30" height="30" as="geometry" />
        </mxCell>
        <mxCell id="t8x82ju6y59PIg8sHKQx-23" value="1" style="text;html=1;align=center;verticalAlign=middle;resizable=0;points=[];autosize=1;strokeColor=none;fillColor=none;" vertex="1" parent="1">
          <mxGeometry x="1250" y="2923" width="30" height="30" as="geometry" />
        </mxCell>
        <mxCell id="t8x82ju6y59PIg8sHKQx-24" value="1" style="text;html=1;align=center;verticalAlign=middle;resizable=0;points=[];autosize=1;strokeColor=none;fillColor=none;" vertex="1" parent="1">
          <mxGeometry x="1840" y="2560" width="30" height="30" as="geometry" />
        </mxCell>
        <mxCell id="t8x82ju6y59PIg8sHKQx-25" value="*" style="text;html=1;align=center;verticalAlign=middle;resizable=0;points=[];autosize=1;strokeColor=none;fillColor=none;" vertex="1" parent="1">
          <mxGeometry x="1845" y="2990" width="30" height="30" as="geometry" />
        </mxCell>
        <mxCell id="t8x82ju6y59PIg8sHKQx-16" value="" style="line;strokeWidth=1;fillColor=none;align=left;verticalAlign=middle;spacingTop=-1;spacingLeft=3;spacingRight=3;rotatable=0;labelPosition=right;points=[];portConstraint=eastwest;strokeColor=inherit;" vertex="1" parent="1">
          <mxGeometry x="1908" y="3074" width="160" height="10" as="geometry" />
        </mxCell>
        <mxCell id="t8x82ju6y59PIg8sHKQx-26" value="" style="line;strokeWidth=1;fillColor=none;align=left;verticalAlign=middle;spacingTop=-1;spacingLeft=3;spacingRight=3;rotatable=0;labelPosition=right;points=[];portConstraint=eastwest;strokeColor=inherit;" vertex="1" parent="1">
          <mxGeometry x="1840" y="3276" width="160" height="10" as="geometry" />
        </mxCell>
        <mxCell id="t8x82ju6y59PIg8sHKQx-27" value="" style="line;strokeWidth=1;fillColor=none;align=left;verticalAlign=middle;spacingTop=-1;spacingLeft=3;spacingRight=3;rotatable=0;labelPosition=right;points=[];portConstraint=eastwest;strokeColor=inherit;" vertex="1" parent="1">
          <mxGeometry x="2050" y="3276" width="160" height="10" as="geometry" />
        </mxCell>
        <mxCell id="t8x82ju6y59PIg8sHKQx-28" value="" style="line;strokeWidth=1;fillColor=none;align=left;verticalAlign=middle;spacingTop=-1;spacingLeft=3;spacingRight=3;rotatable=0;labelPosition=right;points=[];portConstraint=eastwest;strokeColor=inherit;" vertex="1" parent="1">
          <mxGeometry x="1012" y="3102" width="160" height="10" as="geometry" />
        </mxCell>
        <mxCell id="t8x82ju6y59PIg8sHKQx-29" value="" style="line;strokeWidth=1;fillColor=none;align=left;verticalAlign=middle;spacingTop=-1;spacingLeft=3;spacingRight=3;rotatable=0;labelPosition=right;points=[];portConstraint=eastwest;strokeColor=inherit;" vertex="1" parent="1">
          <mxGeometry x="1002" y="2798" width="160" height="10" as="geometry" />
        </mxCell>
        <mxCell id="t8x82ju6y59PIg8sHKQx-30" value="1" style="text;html=1;align=center;verticalAlign=middle;resizable=0;points=[];autosize=1;strokeColor=none;fillColor=none;" vertex="1" parent="1">
          <mxGeometry x="1915" y="2768" width="30" height="30" as="geometry" />
        </mxCell>
        <mxCell id="YZqD_vCs7U6kyd13YYxF-1" value="&lt;p style=&quot;margin:0px;margin-top:4px;text-align:center;&quot;&gt;&lt;i&gt;&amp;lt;&amp;lt;Interface&amp;gt;&amp;gt;&lt;/i&gt;&lt;br&gt;&lt;b&gt;IArmaRepository&lt;/b&gt;&lt;/p&gt;&lt;hr size=&quot;1&quot; style=&quot;border-style:solid;&quot;&gt;&lt;p style=&quot;margin:0px;margin-left:4px;&quot;&gt;&lt;span style=&quot;background-color: transparent; color: light-dark(rgb(0, 0, 0), rgb(255, 255, 255));&quot;&gt;+ save(Arma arma): void&lt;/span&gt;&lt;/p&gt;&lt;p style=&quot;margin:0px;margin-left:4px;&quot;&gt;+&amp;nbsp;&lt;span style=&quot;background-color: transparent; color: light-dark(rgb(0, 0, 0), rgb(255, 255, 255));&quot;&gt;delete(String id): void&lt;/span&gt;&lt;/p&gt;&lt;p style=&quot;margin:0px;margin-left:4px;&quot;&gt;+&amp;nbsp;&lt;span style=&quot;color: light-dark(rgb(0, 0, 0), rgb(255, 255, 255)); background-color: transparent;&quot;&gt;getById(String id): Arma&lt;/span&gt;&lt;span style=&quot;background-color: transparent; color: light-dark(rgb(0, 0, 0), rgb(255, 255, 255));&quot;&gt;&lt;/span&gt;&lt;/p&gt;&lt;p style=&quot;margin:0px;margin-left:4px;&quot;&gt;+&amp;nbsp;&lt;span style=&quot;color: light-dark(rgb(0, 0, 0), rgb(255, 255, 255)); background-color: transparent;&quot;&gt;getAll(): List&amp;lt;Arma&amp;gt;&lt;/span&gt;&lt;span style=&quot;color: light-dark(rgb(0, 0, 0), rgb(255, 255, 255)); background-color: transparent;&quot;&gt;&lt;/span&gt;&lt;/p&gt;" style="verticalAlign=top;align=left;overflow=fill;html=1;whiteSpace=wrap;" vertex="1" parent="1">
          <mxGeometry x="651" y="2747" width="190" height="120" as="geometry" />
        </mxCell>
        <mxCell id="YZqD_vCs7U6kyd13YYxF-3" value="Use" style="endArrow=open;endSize=12;dashed=1;html=1;rounded=0;exitX=0.983;exitY=0.623;exitDx=0;exitDy=0;exitPerimeter=0;entryX=0;entryY=0.5;entryDx=0;entryDy=0;" edge="1" parent="1" source="YZqD_vCs7U6kyd13YYxF-1" target="uHjK8QpXHQpsVASaSQrN-65">
          <mxGeometry width="160" relative="1" as="geometry">
            <mxPoint x="780" y="2782.58" as="sourcePoint" />
            <mxPoint x="940" y="2782.58" as="targetPoint" />
          </mxGeometry>
        </mxCell>
        <mxCell id="YZqD_vCs7U6kyd13YYxF-4" value="&lt;p style=&quot;margin:0px;margin-top:4px;text-align:center;&quot;&gt;&lt;b&gt;ArmasView&lt;/b&gt;&lt;b style=&quot;background-color: transparent; color: light-dark(rgb(0, 0, 0), rgb(255, 255, 255));&quot;&gt;Model&lt;/b&gt;&lt;/p&gt;&lt;hr size=&quot;1&quot; style=&quot;border-style:solid;&quot;&gt;&lt;p style=&quot;margin:0px;margin-left:4px;&quot;&gt;&lt;span style=&quot;background-color: transparent; color: light-dark(rgb(0, 0, 0), rgb(255, 255, 255));&quot;&gt;+ armas: List&amp;lt;Arma&amp;gt;&lt;/span&gt;&lt;/p&gt;&lt;p style=&quot;margin:0px;margin-left:4px;&quot;&gt;&lt;span style=&quot;background-color: transparent; color: light-dark(rgb(0, 0, 0), rgb(255, 255, 255));&quot;&gt;+ isLoading: bool&lt;/span&gt;&lt;/p&gt;&lt;p style=&quot;margin:0px;margin-left:4px;&quot;&gt;&lt;span style=&quot;background-color: transparent; color: light-dark(rgb(0, 0, 0), rgb(255, 255, 255));&quot;&gt;+ error: String&lt;/span&gt;&lt;/p&gt;&lt;p style=&quot;margin:0px;margin-left:4px;&quot;&gt;&lt;span style=&quot;background-color: transparent; color: light-dark(rgb(0, 0, 0), rgb(255, 255, 255));&quot;&gt;&lt;br&gt;&lt;/span&gt;&lt;/p&gt;&lt;p style=&quot;margin:0px;margin-left:4px;&quot;&gt;&lt;span style=&quot;background-color: transparent; color: light-dark(rgb(0, 0, 0), rgb(255, 255, 255));&quot;&gt;+ fetchArmas(): void&lt;/span&gt;&lt;/p&gt;&lt;p style=&quot;margin:0px;margin-left:4px;&quot;&gt;&lt;span style=&quot;background-color: transparent; color: light-dark(rgb(0, 0, 0), rgb(255, 255, 255));&quot;&gt;+ saveArma(String id, String nome, int danoBase): void&lt;/span&gt;&lt;/p&gt;&lt;p style=&quot;margin:0px;margin-left:4px;&quot;&gt;&lt;span style=&quot;background-color: transparent; color: light-dark(rgb(0, 0, 0), rgb(255, 255, 255));&quot;&gt;+ deleteArma(String id): void&lt;/span&gt;&lt;/p&gt;" style="verticalAlign=top;align=left;overflow=fill;html=1;whiteSpace=wrap;" vertex="1" parent="1">
          <mxGeometry x="331" y="2735" width="190" height="145" as="geometry" />
        </mxCell>
        <mxCell id="YZqD_vCs7U6kyd13YYxF-5" value="" style="line;strokeWidth=1;fillColor=none;align=left;verticalAlign=middle;spacingTop=-1;spacingLeft=3;spacingRight=3;rotatable=0;labelPosition=right;points=[];portConstraint=eastwest;strokeColor=inherit;" vertex="1" parent="1">
          <mxGeometry x="331" y="2809.5" width="190" height="10" as="geometry" />
        </mxCell>
        <mxCell id="YZqD_vCs7U6kyd13YYxF-8" style="edgeStyle=orthogonalEdgeStyle;rounded=0;orthogonalLoop=1;jettySize=auto;html=1;exitX=1;exitY=0.5;exitDx=0;exitDy=0;endArrow=none;endFill=0;entryX=0.002;entryY=0.512;entryDx=0;entryDy=0;entryPerimeter=0;" edge="1" parent="1" source="YZqD_vCs7U6kyd13YYxF-4" target="YZqD_vCs7U6kyd13YYxF-1">
          <mxGeometry relative="1" as="geometry">
            <mxPoint x="651" y="2809.25" as="targetPoint" />
          </mxGeometry>
        </mxCell>
        <mxCell id="YZqD_vCs7U6kyd13YYxF-9" value="&lt;p style=&quot;margin:0px;margin-top:4px;text-align:center;&quot;&gt;&lt;i&gt;&amp;lt;&amp;lt;Interface&amp;gt;&amp;gt;&lt;/i&gt;&lt;br&gt;&lt;b&gt;IArmaduraRepository&lt;/b&gt;&lt;/p&gt;&lt;hr size=&quot;1&quot; style=&quot;border-style:solid;&quot;&gt;&lt;p style=&quot;margin:0px;margin-left:4px;&quot;&gt;&lt;span style=&quot;background-color: transparent; color: light-dark(rgb(0, 0, 0), rgb(255, 255, 255));&quot;&gt;+ save(Armadura armadura): void&lt;/span&gt;&lt;/p&gt;&lt;p style=&quot;margin:0px;margin-left:4px;&quot;&gt;+&amp;nbsp;&lt;span style=&quot;background-color: transparent; color: light-dark(rgb(0, 0, 0), rgb(255, 255, 255));&quot;&gt;delete(String id): void&lt;/span&gt;&lt;/p&gt;&lt;p style=&quot;margin:0px;margin-left:4px;&quot;&gt;+&amp;nbsp;&lt;span style=&quot;color: light-dark(rgb(0, 0, 0), rgb(255, 255, 255)); background-color: transparent;&quot;&gt;getById(String id): Armadura&lt;/span&gt;&lt;span style=&quot;background-color: transparent; color: light-dark(rgb(0, 0, 0), rgb(255, 255, 255));&quot;&gt;&lt;/span&gt;&lt;/p&gt;&lt;p style=&quot;margin:0px;margin-left:4px;&quot;&gt;+&amp;nbsp;&lt;span style=&quot;color: light-dark(rgb(0, 0, 0), rgb(255, 255, 255)); background-color: transparent;&quot;&gt;getAll(): List&amp;lt;Armadura&amp;gt;&lt;/span&gt;&lt;span style=&quot;color: light-dark(rgb(0, 0, 0), rgb(255, 255, 255)); background-color: transparent;&quot;&gt;&lt;/span&gt;&lt;/p&gt;" style="verticalAlign=top;align=left;overflow=fill;html=1;whiteSpace=wrap;" vertex="1" parent="1">
          <mxGeometry x="651" y="2919.5" width="190" height="120" as="geometry" />
        </mxCell>
        <mxCell id="YZqD_vCs7U6kyd13YYxF-10" value="&lt;p style=&quot;margin:0px;margin-top:4px;text-align:center;&quot;&gt;&lt;b&gt;ArmadurasView&lt;/b&gt;&lt;b style=&quot;background-color: transparent; color: light-dark(rgb(0, 0, 0), rgb(255, 255, 255));&quot;&gt;Model&lt;/b&gt;&lt;/p&gt;&lt;hr size=&quot;1&quot; style=&quot;border-style:solid;&quot;&gt;&lt;p style=&quot;margin:0px;margin-left:4px;&quot;&gt;&lt;span style=&quot;background-color: transparent; color: light-dark(rgb(0, 0, 0), rgb(255, 255, 255));&quot;&gt;+ armaduras: List&amp;lt;Armadura&amp;gt;&lt;/span&gt;&lt;/p&gt;&lt;p style=&quot;margin:0px;margin-left:4px;&quot;&gt;&lt;span style=&quot;background-color: transparent; color: light-dark(rgb(0, 0, 0), rgb(255, 255, 255));&quot;&gt;+ isLoading: bool&lt;/span&gt;&lt;/p&gt;&lt;p style=&quot;margin:0px;margin-left:4px;&quot;&gt;&lt;span style=&quot;background-color: transparent; color: light-dark(rgb(0, 0, 0), rgb(255, 255, 255));&quot;&gt;+ error: String&lt;/span&gt;&lt;/p&gt;&lt;p style=&quot;margin:0px;margin-left:4px;&quot;&gt;&lt;span style=&quot;background-color: transparent; color: light-dark(rgb(0, 0, 0), rgb(255, 255, 255));&quot;&gt;&lt;br&gt;&lt;/span&gt;&lt;/p&gt;&lt;p style=&quot;margin:0px;margin-left:4px;&quot;&gt;&lt;span style=&quot;background-color: transparent; color: light-dark(rgb(0, 0, 0), rgb(255, 255, 255));&quot;&gt;+ fetchArmaduras(): void&lt;/span&gt;&lt;/p&gt;&lt;p style=&quot;margin:0px;margin-left:4px;&quot;&gt;&lt;span style=&quot;background-color: transparent; color: light-dark(rgb(0, 0, 0), rgb(255, 255, 255));&quot;&gt;+ saveArmadura(String id, String nome, int danoBase): void&lt;/span&gt;&lt;/p&gt;&lt;p style=&quot;margin:0px;margin-left:4px;&quot;&gt;&lt;span style=&quot;background-color: transparent; color: light-dark(rgb(0, 0, 0), rgb(255, 255, 255));&quot;&gt;+ deleteArmadura(String id): void&lt;/span&gt;&lt;/p&gt;" style="verticalAlign=top;align=left;overflow=fill;html=1;whiteSpace=wrap;" vertex="1" parent="1">
          <mxGeometry x="331" y="2907.5" width="190" height="145" as="geometry" />
        </mxCell>
        <mxCell id="YZqD_vCs7U6kyd13YYxF-11" value="" style="line;strokeWidth=1;fillColor=none;align=left;verticalAlign=middle;spacingTop=-1;spacingLeft=3;spacingRight=3;rotatable=0;labelPosition=right;points=[];portConstraint=eastwest;strokeColor=inherit;" vertex="1" parent="1">
          <mxGeometry x="331" y="2982" width="190" height="10" as="geometry" />
        </mxCell>
        <mxCell id="YZqD_vCs7U6kyd13YYxF-12" style="edgeStyle=orthogonalEdgeStyle;rounded=0;orthogonalLoop=1;jettySize=auto;html=1;exitX=1;exitY=0.5;exitDx=0;exitDy=0;endArrow=none;endFill=0;entryX=0.002;entryY=0.512;entryDx=0;entryDy=0;entryPerimeter=0;" edge="1" parent="1" source="YZqD_vCs7U6kyd13YYxF-10" target="YZqD_vCs7U6kyd13YYxF-9">
          <mxGeometry relative="1" as="geometry">
            <mxPoint x="651" y="2981.75" as="targetPoint" />
          </mxGeometry>
        </mxCell>
        <mxCell id="YZqD_vCs7U6kyd13YYxF-13" value="Use" style="endArrow=open;endSize=12;dashed=1;html=1;rounded=0;exitX=1.01;exitY=0.384;exitDx=0;exitDy=0;exitPerimeter=0;entryX=0;entryY=0.75;entryDx=0;entryDy=0;" edge="1" parent="1" source="YZqD_vCs7U6kyd13YYxF-9" target="t8x82ju6y59PIg8sHKQx-1">
          <mxGeometry width="160" relative="1" as="geometry">
            <mxPoint x="770" y="3110" as="sourcePoint" />
            <mxPoint x="1066" y="3113" as="targetPoint" />
          </mxGeometry>
        </mxCell>
        <mxCell id="YZqD_vCs7U6kyd13YYxF-14" value="&lt;p style=&quot;margin:0px;margin-top:4px;text-align:center;&quot;&gt;&lt;i&gt;&amp;lt;&amp;lt;Interface&amp;gt;&amp;gt;&lt;/i&gt;&lt;br&gt;&lt;b&gt;IClassePersonagemRepository&lt;/b&gt;&lt;/p&gt;&lt;hr size=&quot;1&quot; style=&quot;border-style:solid;&quot;&gt;&lt;p style=&quot;margin:0px;margin-left:4px;&quot;&gt;&lt;span style=&quot;background-color: transparent; color: light-dark(rgb(0, 0, 0), rgb(255, 255, 255));&quot;&gt;+ save(ClassePeronagem classe): void&lt;/span&gt;&lt;/p&gt;&lt;p style=&quot;margin:0px;margin-left:4px;&quot;&gt;+&amp;nbsp;&lt;span style=&quot;background-color: transparent; color: light-dark(rgb(0, 0, 0), rgb(255, 255, 255));&quot;&gt;delete(String id): void&lt;/span&gt;&lt;/p&gt;&lt;p style=&quot;margin:0px;margin-left:4px;&quot;&gt;+&amp;nbsp;&lt;span style=&quot;color: light-dark(rgb(0, 0, 0), rgb(255, 255, 255)); background-color: transparent;&quot;&gt;getById(String id): ClassePersonagem&lt;/span&gt;&lt;/p&gt;&lt;p style=&quot;margin:0px;margin-left:4px;&quot;&gt;&lt;span style=&quot;background-color: transparent; color: light-dark(rgb(0, 0, 0), rgb(255, 255, 255));&quot;&gt;+&amp;nbsp;&lt;/span&gt;&lt;span style=&quot;background-color: transparent; color: light-dark(rgb(0, 0, 0), rgb(255, 255, 255));&quot;&gt;getAll(): List&amp;lt;ClassePersonagem&amp;gt;&lt;/span&gt;&lt;/p&gt;" style="verticalAlign=top;align=left;overflow=fill;html=1;whiteSpace=wrap;" vertex="1" parent="1">
          <mxGeometry x="2310" y="2730" width="219" height="120" as="geometry" />
        </mxCell>
        <mxCell id="YZqD_vCs7U6kyd13YYxF-15" value="&lt;p style=&quot;margin:0px;margin-top:4px;text-align:center;&quot;&gt;&lt;b&gt;ClassesView&lt;/b&gt;&lt;b style=&quot;background-color: transparent; color: light-dark(rgb(0, 0, 0), rgb(255, 255, 255));&quot;&gt;Model&lt;/b&gt;&lt;/p&gt;&lt;hr size=&quot;1&quot; style=&quot;border-style:solid;&quot;&gt;&lt;p style=&quot;margin:0px;margin-left:4px;&quot;&gt;&lt;span style=&quot;background-color: transparent; color: light-dark(rgb(0, 0, 0), rgb(255, 255, 255));&quot;&gt;+ classes: List&amp;lt;ClassePersonagem&amp;gt;&lt;/span&gt;&lt;/p&gt;&lt;p style=&quot;margin:0px;margin-left:4px;&quot;&gt;&lt;span style=&quot;background-color: transparent; color: light-dark(rgb(0, 0, 0), rgb(255, 255, 255));&quot;&gt;+ isLoading: bool&lt;/span&gt;&lt;/p&gt;&lt;p style=&quot;margin:0px;margin-left:4px;&quot;&gt;&lt;span style=&quot;background-color: transparent; color: light-dark(rgb(0, 0, 0), rgb(255, 255, 255));&quot;&gt;+ error: String&lt;/span&gt;&lt;/p&gt;&lt;p style=&quot;margin:0px;margin-left:4px;&quot;&gt;&lt;span style=&quot;background-color: transparent; color: light-dark(rgb(0, 0, 0), rgb(255, 255, 255));&quot;&gt;&lt;br&gt;&lt;/span&gt;&lt;/p&gt;&lt;p style=&quot;margin:0px;margin-left:4px;&quot;&gt;&lt;span style=&quot;background-color: transparent; color: light-dark(rgb(0, 0, 0), rgb(255, 255, 255));&quot;&gt;+ fetchClasses(): void&lt;/span&gt;&lt;/p&gt;&lt;p style=&quot;margin:0px;margin-left:4px;&quot;&gt;&lt;span style=&quot;background-color: transparent; color: light-dark(rgb(0, 0, 0), rgb(255, 255, 255));&quot;&gt;+ saveClasse(String id, String nome, ProficienciaArmadura profArmadura, ProficienciaArma profArma): void&lt;/span&gt;&lt;/p&gt;&lt;p style=&quot;margin:0px;margin-left:4px;&quot;&gt;&lt;span style=&quot;background-color: transparent; color: light-dark(rgb(0, 0, 0), rgb(255, 255, 255));&quot;&gt;+ deleteArma(String id): void&lt;/span&gt;&lt;/p&gt;" style="verticalAlign=top;align=left;overflow=fill;html=1;whiteSpace=wrap;" vertex="1" parent="1">
          <mxGeometry x="2635" y="2713.5" width="200" height="172.5" as="geometry" />
        </mxCell>
        <mxCell id="YZqD_vCs7U6kyd13YYxF-16" value="" style="line;strokeWidth=1;fillColor=none;align=left;verticalAlign=middle;spacingTop=-1;spacingLeft=3;spacingRight=3;rotatable=0;labelPosition=right;points=[];portConstraint=eastwest;strokeColor=inherit;" vertex="1" parent="1">
          <mxGeometry x="2635" y="2788" width="200" height="10" as="geometry" />
        </mxCell>
        <mxCell id="YZqD_vCs7U6kyd13YYxF-23" value="Use" style="endArrow=open;endSize=12;dashed=1;html=1;rounded=0;exitX=-0.01;exitY=0.574;exitDx=0;exitDy=0;exitPerimeter=0;entryX=1.004;entryY=0.433;entryDx=0;entryDy=0;entryPerimeter=0;" edge="1" parent="1" source="YZqD_vCs7U6kyd13YYxF-14" target="uHjK8QpXHQpsVASaSQrN-7">
          <mxGeometry width="160" relative="1" as="geometry">
            <mxPoint x="2410" y="2870" as="sourcePoint" />
            <mxPoint x="2705" y="2873" as="targetPoint" />
          </mxGeometry>
        </mxCell>
        <mxCell id="YZqD_vCs7U6kyd13YYxF-24" style="edgeStyle=orthogonalEdgeStyle;rounded=0;orthogonalLoop=1;jettySize=auto;html=1;exitX=0;exitY=0.5;exitDx=0;exitDy=0;entryX=1.005;entryY=0.581;entryDx=0;entryDy=0;entryPerimeter=0;endArrow=none;endFill=0;" edge="1" parent="1" source="YZqD_vCs7U6kyd13YYxF-15" target="YZqD_vCs7U6kyd13YYxF-14">
          <mxGeometry relative="1" as="geometry" />
        </mxCell>
        <mxCell id="YZqD_vCs7U6kyd13YYxF-25" value="&lt;p style=&quot;margin:0px;margin-top:4px;text-align:center;&quot;&gt;&lt;i&gt;&amp;lt;&amp;lt;Interface&amp;gt;&amp;gt;&lt;/i&gt;&lt;br&gt;&lt;b&gt;IHabilidadeRepository&lt;/b&gt;&lt;/p&gt;&lt;hr size=&quot;1&quot; style=&quot;border-style:solid;&quot;&gt;&lt;p style=&quot;margin:0px;margin-left:4px;&quot;&gt;&lt;span style=&quot;background-color: transparent; color: light-dark(rgb(0, 0, 0), rgb(255, 255, 255));&quot;&gt;+ save(Habilidade habilidade): void&lt;/span&gt;&lt;/p&gt;&lt;p style=&quot;margin:0px;margin-left:4px;&quot;&gt;+&amp;nbsp;&lt;span style=&quot;background-color: transparent; color: light-dark(rgb(0, 0, 0), rgb(255, 255, 255));&quot;&gt;delete(String id): void&lt;/span&gt;&lt;/p&gt;&lt;p style=&quot;margin:0px;margin-left:4px;&quot;&gt;+&amp;nbsp;&lt;span style=&quot;color: light-dark(rgb(0, 0, 0), rgb(255, 255, 255)); background-color: transparent;&quot;&gt;getById(String id): Habilidade&lt;/span&gt;&lt;/p&gt;&lt;p style=&quot;margin:0px;margin-left:4px;&quot;&gt;&lt;span style=&quot;background-color: transparent; color: light-dark(rgb(0, 0, 0), rgb(255, 255, 255));&quot;&gt;+&amp;nbsp;&lt;/span&gt;&lt;span style=&quot;background-color: transparent; color: light-dark(rgb(0, 0, 0), rgb(255, 255, 255));&quot;&gt;getAll(): List&amp;lt;Habilidade&amp;gt;&lt;br&gt;+ getAllForCombatente(String combatenteId):&amp;nbsp;&lt;/span&gt;&lt;span style=&quot;background-color: transparent; font-size: 12px;&quot;&gt;Map&amp;lt;String, List&amp;lt;Habilidade&amp;gt;&amp;gt;&lt;/span&gt;&lt;/p&gt;" style="verticalAlign=top;align=left;overflow=fill;html=1;whiteSpace=wrap;" vertex="1" parent="1">
          <mxGeometry x="2280" y="2972.5" width="219" height="157.5" as="geometry" />
        </mxCell>
        <mxCell id="YZqD_vCs7U6kyd13YYxF-26" value="&lt;p style=&quot;margin:0px;margin-top:4px;text-align:center;&quot;&gt;&lt;b&gt;HabilidadesView&lt;/b&gt;&lt;b style=&quot;background-color: transparent; color: light-dark(rgb(0, 0, 0), rgb(255, 255, 255));&quot;&gt;Model&lt;/b&gt;&lt;/p&gt;&lt;hr size=&quot;1&quot; style=&quot;border-style:solid;&quot;&gt;&lt;p style=&quot;margin:0px;margin-left:4px;&quot;&gt;&lt;span style=&quot;background-color: transparent; color: light-dark(rgb(0, 0, 0), rgb(255, 255, 255));&quot;&gt;+ habilidades: List&amp;lt;Habilidade&amp;gt;&lt;/span&gt;&lt;/p&gt;&lt;p style=&quot;margin:0px;margin-left:4px;&quot;&gt;&lt;span style=&quot;background-color: transparent; color: light-dark(rgb(0, 0, 0), rgb(255, 255, 255));&quot;&gt;+ isLoading: bool&lt;/span&gt;&lt;/p&gt;&lt;p style=&quot;margin:0px;margin-left:4px;&quot;&gt;&lt;span style=&quot;background-color: transparent; color: light-dark(rgb(0, 0, 0), rgb(255, 255, 255));&quot;&gt;+ error: String&lt;/span&gt;&lt;/p&gt;&lt;p style=&quot;margin:0px;margin-left:4px;&quot;&gt;&lt;span style=&quot;background-color: transparent; color: light-dark(rgb(0, 0, 0), rgb(255, 255, 255));&quot;&gt;&lt;br&gt;&lt;/span&gt;&lt;/p&gt;&lt;p style=&quot;margin:0px;margin-left:4px;&quot;&gt;&lt;span style=&quot;background-color: transparent; color: light-dark(rgb(0, 0, 0), rgb(255, 255, 255));&quot;&gt;+ fetchHabilidades(): void&lt;/span&gt;&lt;/p&gt;&lt;p style=&quot;margin:0px;margin-left:4px;&quot;&gt;&lt;span style=&quot;background-color: transparent; color: light-dark(rgb(0, 0, 0), rgb(255, 255, 255));&quot;&gt;+ saveHabilidade(String id, String nome, String descricao, int nivelExigido, String categoria, int valorBase): void&lt;/span&gt;&lt;/p&gt;&lt;p style=&quot;margin:0px;margin-left:4px;&quot;&gt;&lt;span style=&quot;background-color: transparent; color: light-dark(rgb(0, 0, 0), rgb(255, 255, 255));&quot;&gt;+ deleteHabilidade(String id): void&lt;/span&gt;&lt;/p&gt;" style="verticalAlign=top;align=left;overflow=fill;html=1;whiteSpace=wrap;" vertex="1" parent="1">
          <mxGeometry x="2605" y="2962" width="245" height="172.5" as="geometry" />
        </mxCell>
        <mxCell id="YZqD_vCs7U6kyd13YYxF-27" value="" style="line;strokeWidth=1;fillColor=none;align=left;verticalAlign=middle;spacingTop=-1;spacingLeft=3;spacingRight=3;rotatable=0;labelPosition=right;points=[];portConstraint=eastwest;strokeColor=inherit;" vertex="1" parent="1">
          <mxGeometry x="2605" y="3036.5" width="245" height="10" as="geometry" />
        </mxCell>
        <mxCell id="YZqD_vCs7U6kyd13YYxF-28" style="edgeStyle=orthogonalEdgeStyle;rounded=0;orthogonalLoop=1;jettySize=auto;html=1;exitX=0;exitY=0.5;exitDx=0;exitDy=0;entryX=1.005;entryY=0.581;entryDx=0;entryDy=0;entryPerimeter=0;endArrow=none;endFill=0;" edge="1" parent="1" source="YZqD_vCs7U6kyd13YYxF-26" target="YZqD_vCs7U6kyd13YYxF-25">
          <mxGeometry relative="1" as="geometry" />
        </mxCell>
        <mxCell id="YZqD_vCs7U6kyd13YYxF-29" value="Use" style="endArrow=open;endSize=12;dashed=1;html=1;rounded=0;exitX=-0.004;exitY=0.403;exitDx=0;exitDy=0;exitPerimeter=0;entryX=1.005;entryY=0.327;entryDx=0;entryDy=0;entryPerimeter=0;" edge="1" parent="1" source="YZqD_vCs7U6kyd13YYxF-25" target="uHjK8QpXHQpsVASaSQrN-80">
          <mxGeometry width="160" relative="1" as="geometry">
            <mxPoint x="2447" y="2911" as="sourcePoint" />
            <mxPoint x="2290" y="2910" as="targetPoint" />
          </mxGeometry>
        </mxCell>
        <mxCell id="YZqD_vCs7U6kyd13YYxF-30" value="&lt;p style=&quot;margin:0px;margin-top:4px;text-align:center;&quot;&gt;&lt;i&gt;&amp;lt;&amp;lt;Interface&amp;gt;&amp;gt;&lt;/i&gt;&lt;br&gt;&lt;b&gt;IGrupoRepository&amp;lt;T extends Combatente&amp;gt;&lt;/b&gt;&lt;/p&gt;&lt;hr size=&quot;1&quot; style=&quot;border-style:solid;&quot;&gt;&lt;p style=&quot;margin:0px;margin-left:4px;&quot;&gt;&lt;span style=&quot;background-color: transparent; color: light-dark(rgb(0, 0, 0), rgb(255, 255, 255));&quot;&gt;+ save(Grupo&amp;lt;T&amp;gt; grupo): void&lt;/span&gt;&lt;/p&gt;&lt;p style=&quot;margin:0px;margin-left:4px;&quot;&gt;+&amp;nbsp;&lt;span style=&quot;background-color: transparent; color: light-dark(rgb(0, 0, 0), rgb(255, 255, 255));&quot;&gt;delete(String id): void&lt;/span&gt;&lt;/p&gt;&lt;p style=&quot;margin:0px;margin-left:4px;&quot;&gt;+&amp;nbsp;&lt;span style=&quot;color: light-dark(rgb(0, 0, 0), rgb(255, 255, 255)); background-color: transparent;&quot;&gt;getById(String id): Grupo&amp;lt;T&amp;gt;&lt;/span&gt;&lt;/p&gt;&lt;p style=&quot;margin:0px;margin-left:4px;&quot;&gt;&lt;span style=&quot;background-color: transparent; color: light-dark(rgb(0, 0, 0), rgb(255, 255, 255));&quot;&gt;+&amp;nbsp;&lt;/span&gt;&lt;span style=&quot;background-color: transparent; color: light-dark(rgb(0, 0, 0), rgb(255, 255, 255));&quot;&gt;getAll(): List&amp;lt;Grupo&amp;lt;T&amp;gt;&amp;gt;&lt;/span&gt;&lt;/p&gt;" style="verticalAlign=top;align=left;overflow=fill;html=1;whiteSpace=wrap;" vertex="1" parent="1">
          <mxGeometry x="1336" y="2110" width="219" height="120" as="geometry" />
        </mxCell>
        <mxCell id="YZqD_vCs7U6kyd13YYxF-31" value="Use" style="endArrow=open;endSize=12;dashed=1;html=1;rounded=0;exitX=0.5;exitY=1;exitDx=0;exitDy=0;entryX=0.5;entryY=0;entryDx=0;entryDy=0;" edge="1" parent="1" source="YZqD_vCs7U6kyd13YYxF-30" target="t8x82ju6y59PIg8sHKQx-17">
          <mxGeometry width="160" relative="1" as="geometry">
            <mxPoint x="1310.0000000000005" y="2260.88" as="sourcePoint" />
            <mxPoint x="1153.19" y="2260" as="targetPoint" />
          </mxGeometry>
        </mxCell>
        <mxCell id="YZqD_vCs7U6kyd13YYxF-33" value="&lt;p style=&quot;margin:0px;margin-top:4px;text-align:center;&quot;&gt;&lt;b&gt;GruposView&lt;/b&gt;&lt;b style=&quot;background-color: transparent; color: light-dark(rgb(0, 0, 0), rgb(255, 255, 255));&quot;&gt;Model&lt;/b&gt;&lt;/p&gt;&lt;hr size=&quot;1&quot; style=&quot;border-style:solid;&quot;&gt;&lt;p style=&quot;margin:0px;margin-left:4px;&quot;&gt;&lt;span style=&quot;background-color: transparent; color: light-dark(rgb(0, 0, 0), rgb(255, 255, 255));&quot;&gt;+ gruposDePersonagens: List&amp;lt;Grupo&amp;lt;Personagem&amp;gt;&amp;gt;&lt;/span&gt;&lt;/p&gt;&lt;p style=&quot;margin:0px;margin-left:4px;&quot;&gt;+ gruposDePersonagens: List&amp;lt;Grupo&amp;lt;Inimigo&amp;gt;&amp;gt;&lt;span style=&quot;background-color: transparent; color: light-dark(rgb(0, 0, 0), rgb(255, 255, 255));&quot;&gt;&lt;/span&gt;&lt;/p&gt;&lt;p style=&quot;margin:0px;margin-left:4px;&quot;&gt;&lt;span style=&quot;background-color: transparent; color: light-dark(rgb(0, 0, 0), rgb(255, 255, 255));&quot;&gt;+ isLoading: bool&lt;/span&gt;&lt;/p&gt;&lt;p style=&quot;margin:0px;margin-left:4px;&quot;&gt;&lt;span style=&quot;background-color: transparent; color: light-dark(rgb(0, 0, 0), rgb(255, 255, 255));&quot;&gt;+ error: String&lt;/span&gt;&lt;/p&gt;&lt;p style=&quot;margin:0px;margin-left:4px;&quot;&gt;&lt;span style=&quot;background-color: transparent; color: light-dark(rgb(0, 0, 0), rgb(255, 255, 255));&quot;&gt;&lt;br&gt;&lt;/span&gt;&lt;/p&gt;&lt;p style=&quot;margin:0px;margin-left:4px;&quot;&gt;&lt;span style=&quot;background-color: transparent; color: light-dark(rgb(0, 0, 0), rgb(255, 255, 255));&quot;&gt;+ fetchTodosOsGrupos(): void&lt;/span&gt;&lt;/p&gt;&lt;p style=&quot;margin:0px;margin-left:4px;&quot;&gt;&lt;span style=&quot;background-color: transparent; color: light-dark(rgb(0, 0, 0), rgb(255, 255, 255));&quot;&gt;+ saveGrupoDePersonagens(String id, String nome, List&amp;lt;Personagem&amp;gt; membros): void&lt;/span&gt;&lt;/p&gt;&lt;p style=&quot;margin:0px;margin-left:4px;&quot;&gt;+ saveGrupoDeInimigos(String id, String nome, List&amp;lt;Inimigo&amp;gt; membros): void&lt;/p&gt;&lt;p style=&quot;margin:0px;margin-left:4px;&quot;&gt;&lt;span style=&quot;background-color: transparent; color: light-dark(rgb(0, 0, 0), rgb(255, 255, 255));&quot;&gt;+ deleteGrupo(String id): void&lt;/span&gt;&lt;/p&gt;" style="verticalAlign=top;align=left;overflow=fill;html=1;whiteSpace=wrap;" vertex="1" parent="1">
          <mxGeometry x="932.5" y="2040" width="255" height="230" as="geometry" />
        </mxCell>
        <mxCell id="YZqD_vCs7U6kyd13YYxF-34" value="" style="line;strokeWidth=1;fillColor=none;align=left;verticalAlign=middle;spacingTop=-1;spacingLeft=3;spacingRight=3;rotatable=0;labelPosition=right;points=[];portConstraint=eastwest;strokeColor=inherit;" vertex="1" parent="1">
          <mxGeometry x="932.5" y="2157" width="255" height="10" as="geometry" />
        </mxCell>
        <mxCell id="YZqD_vCs7U6kyd13YYxF-35" style="edgeStyle=orthogonalEdgeStyle;rounded=0;orthogonalLoop=1;jettySize=auto;html=1;entryX=1;entryY=0.588;entryDx=0;entryDy=0;entryPerimeter=0;endArrow=none;endFill=0;exitX=0.005;exitY=0.543;exitDx=0;exitDy=0;exitPerimeter=0;" edge="1" parent="1" source="YZqD_vCs7U6kyd13YYxF-30" target="YZqD_vCs7U6kyd13YYxF-33">
          <mxGeometry relative="1" as="geometry">
            <mxPoint x="1320" y="2175" as="sourcePoint" />
            <mxPoint x="1549" y="2300" as="targetPoint" />
          </mxGeometry>
        </mxCell>
        <mxCell id="YZqD_vCs7U6kyd13YYxF-36" value="&lt;p style=&quot;margin:0px;margin-top:4px;text-align:center;&quot;&gt;&lt;i&gt;&amp;lt;&amp;lt;Interface&amp;gt;&amp;gt;&lt;/i&gt;&lt;br&gt;&lt;b&gt;IPersonagemRepository&lt;/b&gt;&lt;/p&gt;&lt;hr size=&quot;1&quot; style=&quot;border-style:solid;&quot;&gt;&lt;p style=&quot;margin:0px;margin-left:4px;&quot;&gt;&lt;span style=&quot;background-color: transparent; color: light-dark(rgb(0, 0, 0), rgb(255, 255, 255));&quot;&gt;+ save(Personagem personagem): void&lt;/span&gt;&lt;/p&gt;&lt;p style=&quot;margin:0px;margin-left:4px;&quot;&gt;+&amp;nbsp;&lt;span style=&quot;background-color: transparent; color: light-dark(rgb(0, 0, 0), rgb(255, 255, 255));&quot;&gt;delete(String id): void&lt;/span&gt;&lt;/p&gt;&lt;p style=&quot;margin:0px;margin-left:4px;&quot;&gt;+&amp;nbsp;&lt;span style=&quot;color: light-dark(rgb(0, 0, 0), rgb(255, 255, 255)); background-color: transparent;&quot;&gt;getById(String id): Personagem&lt;/span&gt;&lt;/p&gt;&lt;p style=&quot;margin:0px;margin-left:4px;&quot;&gt;&lt;span style=&quot;background-color: transparent; color: light-dark(rgb(0, 0, 0), rgb(255, 255, 255));&quot;&gt;+&amp;nbsp;&lt;/span&gt;&lt;span style=&quot;background-color: transparent; color: light-dark(rgb(0, 0, 0), rgb(255, 255, 255));&quot;&gt;getAll(): List&amp;lt;Personagem&amp;gt;&lt;/span&gt;&lt;/p&gt;" style="verticalAlign=top;align=left;overflow=fill;html=1;whiteSpace=wrap;" vertex="1" parent="1">
          <mxGeometry x="1602" y="2118" width="219" height="120" as="geometry" />
        </mxCell>
        <mxCell id="YZqD_vCs7U6kyd13YYxF-37" value="&lt;p style=&quot;margin:0px;margin-top:4px;text-align:center;&quot;&gt;&lt;i&gt;&amp;lt;&amp;lt;Interface&amp;gt;&amp;gt;&lt;/i&gt;&lt;br&gt;&lt;b&gt;IInimigoRepository&lt;/b&gt;&lt;/p&gt;&lt;hr size=&quot;1&quot; style=&quot;border-style:solid;&quot;&gt;&lt;p style=&quot;margin:0px;margin-left:4px;&quot;&gt;&lt;span style=&quot;background-color: transparent; color: light-dark(rgb(0, 0, 0), rgb(255, 255, 255));&quot;&gt;+ save(Inimigo inimigo): void&lt;/span&gt;&lt;/p&gt;&lt;p style=&quot;margin:0px;margin-left:4px;&quot;&gt;+&amp;nbsp;&lt;span style=&quot;background-color: transparent; color: light-dark(rgb(0, 0, 0), rgb(255, 255, 255));&quot;&gt;delete(String id): void&lt;/span&gt;&lt;/p&gt;&lt;p style=&quot;margin:0px;margin-left:4px;&quot;&gt;+&amp;nbsp;&lt;span style=&quot;color: light-dark(rgb(0, 0, 0), rgb(255, 255, 255)); background-color: transparent;&quot;&gt;getById(String id): Inimigo&lt;/span&gt;&lt;/p&gt;&lt;p style=&quot;margin:0px;margin-left:4px;&quot;&gt;&lt;span style=&quot;background-color: transparent; color: light-dark(rgb(0, 0, 0), rgb(255, 255, 255));&quot;&gt;+&amp;nbsp;&lt;/span&gt;&lt;span style=&quot;background-color: transparent; color: light-dark(rgb(0, 0, 0), rgb(255, 255, 255));&quot;&gt;getAll(): List&amp;lt;Inimigo&amp;gt;&lt;/span&gt;&lt;/p&gt;" style="verticalAlign=top;align=left;overflow=fill;html=1;whiteSpace=wrap;" vertex="1" parent="1">
          <mxGeometry x="633" y="2420" width="219" height="120" as="geometry" />
        </mxCell>
        <mxCell id="YZqD_vCs7U6kyd13YYxF-38" style="edgeStyle=orthogonalEdgeStyle;rounded=0;orthogonalLoop=1;jettySize=auto;html=1;entryX=0.001;entryY=0.795;entryDx=0;entryDy=0;entryPerimeter=0;endArrow=none;endFill=0;exitX=0.594;exitY=0;exitDx=0;exitDy=0;exitPerimeter=0;" edge="1" parent="1" source="YZqD_vCs7U6kyd13YYxF-37" target="YZqD_vCs7U6kyd13YYxF-33">
          <mxGeometry relative="1" as="geometry">
            <mxPoint x="789" y="2300" as="sourcePoint" />
            <mxPoint x="640" y="2300" as="targetPoint" />
          </mxGeometry>
        </mxCell>
        <mxCell id="YZqD_vCs7U6kyd13YYxF-39" style="edgeStyle=orthogonalEdgeStyle;rounded=0;orthogonalLoop=1;jettySize=auto;html=1;entryX=1;entryY=0.25;entryDx=0;entryDy=0;endArrow=none;endFill=0;exitX=0.25;exitY=0;exitDx=0;exitDy=0;" edge="1" parent="1" source="YZqD_vCs7U6kyd13YYxF-36" target="YZqD_vCs7U6kyd13YYxF-33">
          <mxGeometry relative="1" as="geometry">
            <mxPoint x="1509" y="1970" as="sourcePoint" />
            <mxPoint x="1360" y="1970" as="targetPoint" />
          </mxGeometry>
        </mxCell>
        <mxCell id="YZqD_vCs7U6kyd13YYxF-40" value="Use" style="endArrow=open;endSize=12;dashed=1;html=1;rounded=0;exitX=0.319;exitY=1.015;exitDx=0;exitDy=0;exitPerimeter=0;entryX=0;entryY=0.25;entryDx=0;entryDy=0;" edge="1" parent="1" source="YZqD_vCs7U6kyd13YYxF-37" target="uHjK8QpXHQpsVASaSQrN-3">
          <mxGeometry width="160" relative="1" as="geometry">
            <mxPoint x="823" y="2612" as="sourcePoint" />
            <mxPoint x="824" y="2740" as="targetPoint" />
          </mxGeometry>
        </mxCell>
        <mxCell id="YZqD_vCs7U6kyd13YYxF-41" value="Use" style="endArrow=open;endSize=12;dashed=1;html=1;rounded=0;exitX=0.25;exitY=1;exitDx=0;exitDy=0;" edge="1" parent="1" source="YZqD_vCs7U6kyd13YYxF-36" target="uHjK8QpXHQpsVASaSQrN-5">
          <mxGeometry width="160" relative="1" as="geometry">
            <mxPoint x="2160" y="2370" as="sourcePoint" />
            <mxPoint x="2388" y="2504" as="targetPoint" />
          </mxGeometry>
        </mxCell>
        <mxCell id="YZqD_vCs7U6kyd13YYxF-42" value="&lt;p style=&quot;margin:0px;margin-top:4px;text-align:center;&quot;&gt;&lt;i&gt;&amp;lt;&amp;lt;Interface&amp;gt;&amp;gt;&lt;/i&gt;&lt;br&gt;&lt;b&gt;IRacaRepository&lt;/b&gt;&lt;/p&gt;&lt;hr size=&quot;1&quot; style=&quot;border-style:solid;&quot;&gt;&lt;p style=&quot;margin:0px;margin-left:4px;&quot;&gt;&lt;span style=&quot;background-color: transparent; color: light-dark(rgb(0, 0, 0), rgb(255, 255, 255));&quot;&gt;+ save(Raca raca): void&lt;/span&gt;&lt;/p&gt;&lt;p style=&quot;margin:0px;margin-left:4px;&quot;&gt;+&amp;nbsp;&lt;span style=&quot;background-color: transparent; color: light-dark(rgb(0, 0, 0), rgb(255, 255, 255));&quot;&gt;delete(String id): void&lt;/span&gt;&lt;/p&gt;&lt;p style=&quot;margin:0px;margin-left:4px;&quot;&gt;+&amp;nbsp;&lt;span style=&quot;color: light-dark(rgb(0, 0, 0), rgb(255, 255, 255)); background-color: transparent;&quot;&gt;getById(String id): Raca&lt;/span&gt;&lt;/p&gt;&lt;p style=&quot;margin:0px;margin-left:4px;&quot;&gt;&lt;span style=&quot;background-color: transparent; color: light-dark(rgb(0, 0, 0), rgb(255, 255, 255));&quot;&gt;+&amp;nbsp;&lt;/span&gt;&lt;span style=&quot;background-color: transparent; color: light-dark(rgb(0, 0, 0), rgb(255, 255, 255));&quot;&gt;getAll(): List&amp;lt;Raca&amp;gt;&lt;br&gt;&lt;/span&gt;&lt;/p&gt;" style="verticalAlign=top;align=left;overflow=fill;html=1;whiteSpace=wrap;" vertex="1" parent="1">
          <mxGeometry x="2020" y="2348" width="219" height="112" as="geometry" />
        </mxCell>
        <mxCell id="YZqD_vCs7U6kyd13YYxF-43" value="&lt;p style=&quot;margin:0px;margin-top:4px;text-align:center;&quot;&gt;&lt;b&gt;RacaView&lt;/b&gt;&lt;b style=&quot;background-color: transparent; color: light-dark(rgb(0, 0, 0), rgb(255, 255, 255));&quot;&gt;Model&lt;/b&gt;&lt;/p&gt;&lt;hr size=&quot;1&quot; style=&quot;border-style:solid;&quot;&gt;&lt;p style=&quot;margin:0px;margin-left:4px;&quot;&gt;&lt;span style=&quot;background-color: transparent; color: light-dark(rgb(0, 0, 0), rgb(255, 255, 255));&quot;&gt;+ racas: List&amp;lt;Raca&amp;gt;&lt;/span&gt;&lt;/p&gt;&lt;p style=&quot;margin:0px;margin-left:4px;&quot;&gt;&lt;span style=&quot;background-color: transparent; color: light-dark(rgb(0, 0, 0), rgb(255, 255, 255));&quot;&gt;+ isLoading: bool&lt;/span&gt;&lt;/p&gt;&lt;p style=&quot;margin:0px;margin-left:4px;&quot;&gt;&lt;span style=&quot;background-color: transparent; color: light-dark(rgb(0, 0, 0), rgb(255, 255, 255));&quot;&gt;+ error: String&lt;/span&gt;&lt;/p&gt;&lt;p style=&quot;margin:0px;margin-left:4px;&quot;&gt;&lt;span style=&quot;background-color: transparent; color: light-dark(rgb(0, 0, 0), rgb(255, 255, 255));&quot;&gt;&lt;br&gt;&lt;/span&gt;&lt;/p&gt;&lt;p style=&quot;margin:0px;margin-left:4px;&quot;&gt;&lt;span style=&quot;background-color: transparent; color: light-dark(rgb(0, 0, 0), rgb(255, 255, 255));&quot;&gt;+ fetchRacas(): void&lt;/span&gt;&lt;/p&gt;&lt;p style=&quot;margin:0px;margin-left:4px;&quot;&gt;&lt;span style=&quot;background-color: transparent; color: light-dark(rgb(0, 0, 0), rgb(255, 255, 255));&quot;&gt;+ saveRaca(String id, String nome, Map&amp;lt;String, int&amp;gt; modificadores): void&lt;/span&gt;&lt;/p&gt;&lt;p style=&quot;margin:0px;margin-left:4px;&quot;&gt;&lt;span style=&quot;background-color: transparent; color: light-dark(rgb(0, 0, 0), rgb(255, 255, 255));&quot;&gt;+ deleteRaca(String id): void&lt;/span&gt;&lt;/p&gt;" style="verticalAlign=top;align=left;overflow=fill;html=1;whiteSpace=wrap;" vertex="1" parent="1">
          <mxGeometry x="2300" y="2450" width="245" height="172.5" as="geometry" />
        </mxCell>
        <mxCell id="YZqD_vCs7U6kyd13YYxF-44" value="" style="line;strokeWidth=1;fillColor=none;align=left;verticalAlign=middle;spacingTop=-1;spacingLeft=3;spacingRight=3;rotatable=0;labelPosition=right;points=[];portConstraint=eastwest;strokeColor=inherit;" vertex="1" parent="1">
          <mxGeometry x="2300" y="2524.5" width="245" height="10" as="geometry" />
        </mxCell>
        <mxCell id="YZqD_vCs7U6kyd13YYxF-45" style="edgeStyle=orthogonalEdgeStyle;rounded=0;orthogonalLoop=1;jettySize=auto;html=1;exitX=0.15;exitY=0.005;exitDx=0;exitDy=0;entryX=1.005;entryY=0.581;entryDx=0;entryDy=0;entryPerimeter=0;endArrow=none;endFill=0;exitPerimeter=0;" edge="1" parent="1" source="YZqD_vCs7U6kyd13YYxF-43" target="YZqD_vCs7U6kyd13YYxF-42">
          <mxGeometry relative="1" as="geometry" />
        </mxCell>
        <mxCell id="YZqD_vCs7U6kyd13YYxF-46" value="Use" style="endArrow=open;endSize=12;dashed=1;html=1;rounded=0;exitX=-0.004;exitY=0.819;exitDx=0;exitDy=0;entryX=0.25;entryY=0;entryDx=0;entryDy=0;exitPerimeter=0;" edge="1" parent="1" source="YZqD_vCs7U6kyd13YYxF-42" target="uHjK8QpXHQpsVASaSQrN-8">
          <mxGeometry width="160" relative="1" as="geometry">
            <mxPoint x="1988" y="2370" as="sourcePoint" />
            <mxPoint x="1940" y="2520" as="targetPoint" />
          </mxGeometry>
        </mxCell>
        <mxCell id="YZqD_vCs7U6kyd13YYxF-47" value="&lt;p style=&quot;margin:0px;margin-top:4px;text-align:center;&quot;&gt;&lt;i&gt;&amp;lt;&amp;lt;Interface&amp;gt;&amp;gt;&lt;/i&gt;&lt;br&gt;&lt;b&gt;IPrototype&amp;lt;T&amp;gt;&lt;/b&gt;&lt;/p&gt;&lt;hr size=&quot;1&quot; style=&quot;border-style:solid;&quot;&gt;&lt;p style=&quot;margin:0px;margin-left:4px;&quot;&gt;&lt;span style=&quot;background-color: transparent; color: light-dark(rgb(0, 0, 0), rgb(255, 255, 255));&quot;&gt;+ clone(): void&lt;/span&gt;&lt;/p&gt;" style="verticalAlign=top;align=left;overflow=fill;html=1;whiteSpace=wrap;" vertex="1" parent="1">
          <mxGeometry x="523" y="2600" width="219" height="70" as="geometry" />
        </mxCell>
        <mxCell id="YZqD_vCs7U6kyd13YYxF-48" value="" style="endArrow=block;dashed=1;endFill=0;endSize=12;html=1;rounded=0;entryX=1;entryY=0.75;entryDx=0;entryDy=0;edgeStyle=orthogonalEdgeStyle;exitX=0;exitY=0.5;exitDx=0;exitDy=0;" edge="1" parent="1" source="uHjK8QpXHQpsVASaSQrN-3" target="YZqD_vCs7U6kyd13YYxF-47">
          <mxGeometry width="160" relative="1" as="geometry">
            <mxPoint x="893" y="2730" as="sourcePoint" />
            <mxPoint x="513" y="2331" as="targetPoint" />
          </mxGeometry>
        </mxCell>
        <mxCell id="YZqD_vCs7U6kyd13YYxF-49" value="&lt;p style=&quot;margin:0px;margin-top:4px;text-align:center;&quot;&gt;&lt;i&gt;&amp;lt;&amp;lt;Interface&amp;gt;&amp;gt;&lt;/i&gt;&lt;br&gt;&lt;b&gt;IFichaFactory&lt;/b&gt;&lt;/p&gt;&lt;hr size=&quot;1&quot; style=&quot;border-style:solid;&quot;&gt;&lt;p style=&quot;margin:0px;margin-left:4px;&quot;&gt;&lt;span style=&quot;background-color: transparent; color: light-dark(rgb(0, 0, 0), rgb(255, 255, 255));&quot;&gt;+ criarPersonagem(PersonagemParams params): Personagem&lt;/span&gt;&lt;/p&gt;&lt;p style=&quot;margin:0px;margin-left:4px;&quot;&gt;+ criarInimigo(InimigoParams params): Inimigo&lt;/p&gt;" style="verticalAlign=top;align=left;overflow=fill;html=1;whiteSpace=wrap;" vertex="1" parent="1">
          <mxGeometry x="1120.5" y="2397" width="220" height="110" as="geometry" />
        </mxCell>
        <mxCell id="YZqD_vCs7U6kyd13YYxF-50" value="Create" style="endArrow=open;endSize=12;dashed=1;html=1;rounded=0;exitX=0.25;exitY=1;exitDx=0;exitDy=0;entryX=1;entryY=0.25;entryDx=0;entryDy=0;edgeStyle=orthogonalEdgeStyle;" edge="1" parent="1" source="YZqD_vCs7U6kyd13YYxF-49" target="uHjK8QpXHQpsVASaSQrN-3">
          <mxGeometry width="160" relative="1" as="geometry">
            <mxPoint x="1384" y="2550" as="sourcePoint" />
            <mxPoint x="1280" y="2660" as="targetPoint" />
          </mxGeometry>
        </mxCell>
        <mxCell id="YZqD_vCs7U6kyd13YYxF-51" value="Create" style="endArrow=open;endSize=12;dashed=1;html=1;rounded=0;entryX=0;entryY=0.25;entryDx=0;entryDy=0;edgeStyle=orthogonalEdgeStyle;exitX=0.992;exitY=0.816;exitDx=0;exitDy=0;exitPerimeter=0;" edge="1" parent="1" source="YZqD_vCs7U6kyd13YYxF-49" target="uHjK8QpXHQpsVASaSQrN-5">
          <mxGeometry width="160" relative="1" as="geometry">
            <mxPoint x="1320" y="2490" as="sourcePoint" />
            <mxPoint x="1514.75" y="2623" as="targetPoint" />
            <Array as="points">
              <mxPoint x="1515" y="2490" />
              <mxPoint x="1515" y="2583" />
            </Array>
          </mxGeometry>
        </mxCell>
        <mxCell id="YZqD_vCs7U6kyd13YYxF-53" value="&lt;p style=&quot;margin:0px;margin-top:4px;text-align:center;&quot;&gt;&lt;b&gt;InimigoParams&lt;/b&gt;&lt;/p&gt;&lt;hr size=&quot;1&quot; style=&quot;border-style:solid;&quot;&gt;&lt;p style=&quot;margin:0px;margin-left:4px;&quot;&gt;&lt;span style=&quot;background-color: transparent; color: light-dark(rgb(0, 0, 0), rgb(255, 255, 255));&quot;&gt;+ id: String&lt;/span&gt;&lt;/p&gt;&lt;p style=&quot;margin:0px;margin-left:4px;&quot;&gt;+ nome: String&lt;/p&gt;&lt;p style=&quot;margin:0px;margin-left:4px;&quot;&gt;+ nivel: int&lt;/p&gt;&lt;p style=&quot;margin:0px;margin-left:4px;&quot;&gt;+ tipo: String&lt;/p&gt;&lt;p style=&quot;margin:0px;margin-left:4px;&quot;&gt;+ atributos: AtributosBase&lt;/p&gt;&lt;p style=&quot;margin:0px;margin-left:4px;&quot;&gt;+ armaId: String&lt;/p&gt;&lt;p style=&quot;margin:0px;margin-left:4px;&quot;&gt;+ armaduraId: String&lt;/p&gt;&lt;p style=&quot;margin:0px;margin-left:4px;&quot;&gt;+ habilidadesIds: List&amp;lt;String&amp;gt;&lt;/p&gt;" style="verticalAlign=top;align=left;overflow=fill;html=1;whiteSpace=wrap;" vertex="1" parent="1">
          <mxGeometry x="887" y="2340" width="220" height="150" as="geometry" />
        </mxCell>
        <mxCell id="YZqD_vCs7U6kyd13YYxF-54" value="Use" style="endArrow=open;endSize=12;dashed=1;html=1;rounded=0;exitX=0.5;exitY=0;exitDx=0;exitDy=0;entryX=0.999;entryY=0.086;entryDx=0;entryDy=0;entryPerimeter=0;edgeStyle=orthogonalEdgeStyle;" edge="1" parent="1" source="YZqD_vCs7U6kyd13YYxF-49" target="YZqD_vCs7U6kyd13YYxF-53">
          <mxGeometry width="160" relative="1" as="geometry">
            <mxPoint x="1448" y="2440" as="sourcePoint" />
            <mxPoint x="1400" y="2590" as="targetPoint" />
          </mxGeometry>
        </mxCell>
        <mxCell id="YZqD_vCs7U6kyd13YYxF-55" value="&lt;p style=&quot;margin:0px;margin-top:4px;text-align:center;&quot;&gt;&lt;b&gt;PersonagemParams&lt;/b&gt;&lt;/p&gt;&lt;hr size=&quot;1&quot; style=&quot;border-style:solid;&quot;&gt;&lt;p style=&quot;margin:0px;margin-left:4px;&quot;&gt;&lt;span style=&quot;background-color: transparent; color: light-dark(rgb(0, 0, 0), rgb(255, 255, 255));&quot;&gt;+ id: String&lt;/span&gt;&lt;/p&gt;&lt;p style=&quot;margin:0px;margin-left:4px;&quot;&gt;+ nome: String&lt;/p&gt;&lt;p style=&quot;margin:0px;margin-left:4px;&quot;&gt;+ nivel: int&lt;/p&gt;&lt;p style=&quot;margin:0px;margin-left:4px;&quot;&gt;+ racaId: String&lt;/p&gt;&lt;p style=&quot;margin:0px;margin-left:4px;&quot;&gt;+ classeId: String&lt;/p&gt;&lt;p style=&quot;margin:0px;margin-left:4px;&quot;&gt;+ atributos: AtributosBase&lt;/p&gt;&lt;p style=&quot;margin:0px;margin-left:4px;&quot;&gt;+ armaId: String&lt;/p&gt;&lt;p style=&quot;margin:0px;margin-left:4px;&quot;&gt;+ armaduraId: String&lt;/p&gt;&lt;p style=&quot;margin:0px;margin-left:4px;&quot;&gt;+ habilidadesConhecidasIds: List&amp;lt;String&amp;gt;&lt;/p&gt;&lt;p style=&quot;margin:0px;margin-left:4px;&quot;&gt;+ habilidadesPreparadasIds: List&amp;lt;String&amp;gt;&lt;/p&gt;" style="verticalAlign=top;align=left;overflow=fill;html=1;whiteSpace=wrap;" vertex="1" parent="1">
          <mxGeometry x="1712" y="2293" width="220" height="210" as="geometry" />
        </mxCell>
        <mxCell id="YZqD_vCs7U6kyd13YYxF-56" value="Use" style="endArrow=open;endSize=12;dashed=1;html=1;rounded=0;exitX=1.002;exitY=0.556;exitDx=0;exitDy=0;entryX=0;entryY=0.786;entryDx=0;entryDy=0;exitPerimeter=0;entryPerimeter=0;" edge="1" parent="1" source="YZqD_vCs7U6kyd13YYxF-49" target="YZqD_vCs7U6kyd13YYxF-55">
          <mxGeometry x="-0.6103" y="1" width="160" relative="1" as="geometry">
            <mxPoint x="1497.5" y="2507" as="sourcePoint" />
            <mxPoint x="1393.5" y="2617" as="targetPoint" />
            <mxPoint as="offset" />
          </mxGeometry>
        </mxCell>
        <mxCell id="YZqD_vCs7U6kyd13YYxF-57" value="Use" style="endArrow=open;endSize=12;dashed=1;html=1;rounded=0;exitX=0.905;exitY=1.013;exitDx=0;exitDy=0;entryX=1;entryY=0.25;entryDx=0;entryDy=0;edgeStyle=orthogonalEdgeStyle;exitPerimeter=0;" edge="1" parent="1" source="YZqD_vCs7U6kyd13YYxF-53" target="uHjK8QpXHQpsVASaSQrN-61">
          <mxGeometry width="160" relative="1" as="geometry">
            <mxPoint x="1497" y="2634" as="sourcePoint" />
            <mxPoint x="1370" y="2590" as="targetPoint" />
            <Array as="points">
              <mxPoint x="1086" y="2580" />
              <mxPoint x="1240" y="2580" />
              <mxPoint x="1240" y="3026" />
            </Array>
          </mxGeometry>
        </mxCell>
        <mxCell id="YZqD_vCs7U6kyd13YYxF-58" value="Use" style="endArrow=open;endSize=12;dashed=1;html=1;rounded=0;exitX=0.25;exitY=1;exitDx=0;exitDy=0;edgeStyle=orthogonalEdgeStyle;entryX=0.984;entryY=0.152;entryDx=0;entryDy=0;entryPerimeter=0;" edge="1" parent="1" source="YZqD_vCs7U6kyd13YYxF-55" target="uHjK8QpXHQpsVASaSQrN-61">
          <mxGeometry x="0.6826" y="10" width="160" relative="1" as="geometry">
            <mxPoint x="1320" y="2603" as="sourcePoint" />
            <mxPoint x="1300" y="2550" as="targetPoint" />
            <mxPoint as="offset" />
            <Array as="points">
              <mxPoint x="1765" y="2530" />
              <mxPoint x="1780" y="2530" />
              <mxPoint x="1780" y="2790" />
              <mxPoint x="1310" y="2790" />
              <mxPoint x="1310" y="3010" />
            </Array>
          </mxGeometry>
        </mxCell>
      </root>
    </mxGraphModel>
  </diagram>
</mxfile>
